<svg style="display: none"
  xmlns="http://www.w3.org/2000/svg">
  <symbol id="iconReviewStar" viewBox="0 0 47 45">
    <path d="M24.9168 1.59894L29.2715 14.1268C29.6148 15.1145 30.5366 15.7842 31.582 15.8055L44.8424 16.0757C46.2643 16.1047 46.8513 17.9115 45.718 18.7707L35.149 26.7836C34.3158 27.4153 33.9637 28.4988 34.2665 29.4997L38.1072 42.1945C38.519 43.5558 36.982 44.6725 35.8147 43.8601L24.928 36.2845C24.0697 35.6873 22.9303 35.6873 22.0721 36.2845L11.1853 43.8601C10.018 44.6725 8.48101 43.5558 8.89284 42.1945L12.7335 29.4997C13.0363 28.4988 12.6842 27.4153 11.851 26.7836L1.28197 18.7707C0.148671 17.9115 0.735743 16.1047 2.15763 16.0757L15.418 15.8055C16.4634 15.7842 17.3852 15.1145 17.7285 14.1268L22.0832 1.59894C22.5501 0.255601 24.4499 0.255602 24.9168 1.59894Z" />
  </symbol>
</svg>
