<svg style="display: none" fill="none"
  xmlns="http://www.w3.org/2000/svg">
  <symbol id="iconMessageRatingStar">
    <path d="M10.1632 15.634L14.8882 18.634C15.4976 19.0184 16.2476 18.4465 16.0695 17.7434L14.7007 12.3621C14.6637 12.213 14.6696 12.0564 14.7177 11.9104C14.7658 11.7645 14.8542 11.6351 14.9726 11.5371L19.2101 8.00276C19.7632 7.54338 19.482 6.61526 18.7601 6.56838L13.2289 6.21213C13.0779 6.20335 12.9328 6.1508 12.8113 6.06089C12.6898 5.97099 12.597 5.84763 12.5445 5.70588L10.482 0.512133C10.4274 0.362042 10.3279 0.232386 10.1971 0.140766C10.0663 0.0491458 9.91044 0 9.75073 0C9.59102 0 9.43517 0.0491458 9.30435 0.140766C9.17353 0.232386 9.07407 0.362042 9.01948 0.512133L6.95698 5.70588C6.90441 5.84763 6.8117 5.97099 6.69016 6.06089C6.56862 6.1508 6.42353 6.20335 6.2726 6.21213L0.741353 6.56838C0.0194783 6.61526 -0.261772 7.54338 0.291353 8.00276L4.52885 11.5371C4.64729 11.6351 4.73565 11.7645 4.78375 11.9104C4.83186 12.0564 4.83774 12.213 4.80073 12.3621L3.5351 17.3496C3.31948 18.1934 4.21948 18.8778 4.94135 18.4184L9.33823 15.634C9.46153 15.5556 9.60462 15.514 9.75073 15.514C9.89684 15.514 10.0399 15.5556 10.1632 15.634Z" fill="#2388FF" />
  </symbol>
</svg>