<svg style="display: none"
  xmlns="http://www.w3.org/2000/svg">
  <symbol id="iconMessageRatingStarEmpty">
    <path d="M14.2218 12.7869L14.2218 12.7869L14.2229 12.7912L15.5915 18.1717C15.5915 18.1719 15.5915 18.172 15.5916 18.1721C15.5952 18.1867 15.5954 18.196 15.5951 18.2011C15.5948 18.2064 15.5938 18.2107 15.5923 18.2146C15.589 18.2234 15.5818 18.2341 15.5704 18.2427C15.5615 18.2495 15.555 18.2513 15.553 18.2517C15.5515 18.2512 15.5465 18.2495 15.538 18.2442C15.5378 18.244 15.5376 18.2439 15.5374 18.2438L10.8147 15.2453C10.5711 15.0904 10.2884 15.0081 9.99976 15.0081C9.71121 15.0081 9.42863 15.0903 9.18511 15.2451C9.18501 15.2451 9.18491 15.2452 9.18481 15.2453L4.78912 18.0289L4.78772 18.0298C4.74322 18.0581 4.71117 18.0614 4.68803 18.0598C4.66004 18.0578 4.62462 18.0464 4.58956 18.0197C4.52106 17.9677 4.48368 17.8855 4.51078 17.7795L4.51109 17.7782L5.77671 12.7907L5.77672 12.7907L5.77768 12.7869C5.84872 12.5006 5.83743 12.2 5.7451 11.9198C5.65297 11.6403 5.48392 11.3924 5.25735 11.2045C5.25683 11.2041 5.25632 11.2037 5.25581 11.2033L1.02077 7.67094L1.01955 7.66993C1.01078 7.66264 1.00707 7.65742 1.00549 7.65492C1.00374 7.65216 1.00225 7.64894 1.00108 7.64449C0.998413 7.63438 0.997479 7.61694 1.00372 7.59679C1.00994 7.57669 1.01916 7.56693 1.02188 7.56463C1.02279 7.56386 1.02309 7.56374 1.02341 7.56361L1.02346 7.56359L1.02347 7.56359C1.02368 7.5635 1.02798 7.56168 1.03873 7.56096C1.03881 7.56096 1.03889 7.56095 1.03898 7.56095L6.56787 7.20485C6.8633 7.18714 7.14724 7.08402 7.38521 6.90799C7.6212 6.73342 7.80186 6.49462 7.90568 6.22021L9.96555 1.03308C9.96824 1.02631 9.97083 1.0195 9.97332 1.01265C9.97529 1.00723 9.97889 1.00254 9.98362 0.999229C9.98835 0.995917 9.99398 0.994141 9.99975 0.994141C10.0055 0.994141 10.0112 0.995916 10.0159 0.999228C10.0206 1.00254 10.0242 1.00723 10.0262 1.01265C10.0287 1.0195 10.0313 1.02631 10.034 1.03308L12.0938 6.22018C12.1976 6.49461 12.3783 6.73342 12.6143 6.90799C12.8523 7.08402 13.1362 7.18714 13.4316 7.20485C13.4325 7.2049 13.4334 7.20495 13.4343 7.20501L18.9605 7.56095C18.9606 7.56095 18.9607 7.56096 18.9607 7.56096C18.9717 7.56169 18.976 7.56355 18.976 7.56359C18.9764 7.56373 18.9767 7.56381 18.9776 7.56463C18.9803 7.56693 18.9896 7.57669 18.9958 7.59679C19.002 7.61694 19.0011 7.63438 18.9984 7.64449C18.9973 7.64894 18.9958 7.65216 18.994 7.65492C18.9924 7.65742 18.9887 7.66264 18.9799 7.66993L18.9787 7.67094L14.7437 11.2033C14.7432 11.2037 14.7427 11.2041 14.7422 11.2045C14.5156 11.3924 14.3465 11.6403 14.2544 11.9198L14.9667 12.1546L14.2544 11.9198C14.1621 12.2 14.1508 12.5006 14.2218 12.7869Z" stroke="#2388FF" stroke-width="1.5" stroke-linecap="round" stroke-linejoin="round" />
  </symbol>
</svg>
