<svg style="display: none"
  xmlns="http://www.w3.org/2000/svg">
  <symbol id="iconSmallFillStar">
    <path d="M7.62242 11.7255L11.1662 13.9755C11.6232 14.2638 12.1857 13.8349 12.0521 13.3075L11.0255 9.2716C10.9978 9.15973 11.0022 9.04229 11.0383 8.93282C11.0744 8.82335 11.1406 8.7263 11.2295 8.65285L14.4076 6.00207C14.8224 5.65754 14.6115 4.96144 14.0701 4.92629L9.92164 4.6591C9.80845 4.65251 9.69963 4.6131 9.60848 4.54567C9.51732 4.47824 9.44778 4.38572 9.40836 4.27941L7.86148 0.384099C7.82054 0.271531 7.74594 0.174289 7.64783 0.105574C7.54971 0.0368594 7.43283 0 7.31305 0C7.19326 0 7.07638 0.0368594 6.97826 0.105574C6.88015 0.174289 6.80556 0.271531 6.76461 0.384099L5.21773 4.27941C5.17831 4.38572 5.10877 4.47824 5.01762 4.54567C4.92647 4.6131 4.81764 4.65251 4.70445 4.6591L0.556015 4.92629C0.0146088 4.96144 -0.196329 5.65754 0.218515 6.00207L3.39664 8.65285C3.48547 8.7263 3.55174 8.82335 3.58782 8.93282C3.62389 9.04229 3.6283 9.15973 3.60055 9.2716L2.65133 13.0122C2.48961 13.645 3.16461 14.1583 3.70602 13.8138L7.00367 11.7255C7.09615 11.6667 7.20346 11.6355 7.31305 11.6355C7.42263 11.6355 7.52995 11.6667 7.62242 11.7255V11.7255Z" fill="#2388FF" />
  </symbol>
</svg>