<svg style="display: none"
  xmlns="http://www.w3.org/2000/svg">
  <symbol id="iconSmallEmptyStar">
    <path d="M10.2976 9.45222L10.2976 9.45222L10.2987 9.45648L11.2329 13.1295L8.02486 11.0926C8.02472 11.0925 8.02457 11.0924 8.02443 11.0923C7.81176 10.9572 7.56501 10.8855 7.31305 10.8855C7.06122 10.8855 6.81461 10.9572 6.60202 11.0921C6.60176 11.0923 6.60149 11.0925 6.60123 11.0926L3.39737 13.1215L4.32751 9.45607L4.32752 9.45607L4.32847 9.45222C4.39026 9.20319 4.38044 8.94177 4.30013 8.69808C4.22003 8.45502 4.07306 8.23946 3.87609 8.07611C3.87558 8.07569 3.87508 8.07527 3.87457 8.07485L0.968835 5.65125L4.75089 5.40766C5.00851 5.39212 5.25612 5.30214 5.46364 5.14863C5.66917 4.9966 5.82661 4.78874 5.9173 4.54988L7.31305 1.03514L8.70879 4.54988C8.79949 4.78874 8.95693 4.9966 9.16245 5.14863C9.36998 5.30214 9.61758 5.39211 9.8752 5.40766L13.6573 5.65125L10.7515 8.07485C10.751 8.07527 10.7505 8.07569 10.75 8.07611C10.553 8.23946 10.4061 8.45502 10.326 8.69808C10.2457 8.94177 10.2358 9.20319 10.2976 9.45222Z" stroke="#ADB7BC" stroke-width="1.5" stroke-linecap="round" stroke-linejoin="round" />
  </symbol>
</svg>