<svg style="display: none"
  xmlns="http://www.w3.org/2000/svg">
  <symbol id="iconSadStar">
    <path fill-rule="evenodd" clip-rule="evenodd" d="M26.0615 134.841C29.5024 137.279 32.8717 137.207 36.1692 134.626L67.9978 110.325L99.8264 134.626C103.124 137.207 106.493 137.279 109.934 134.841C113.375 132.404 114.522 129.178 113.375 125.164L101.117 85.378L132.3 63.227C135.741 60.7897 136.782 57.5638 135.423 53.5494C134.058 49.535 131.296 47.5278 127.139 47.5278H88.6433L76.17 6.23668C75.4531 4.22947 74.3406 2.68679 72.8323 1.60863C71.3298 0.536213 69.7183 0 67.9978 0C66.2773 0 64.6658 0.536213 63.1633 1.60863C61.655 2.68679 60.5425 4.22947 59.8256 6.23668L47.3522 47.5278H8.85689C4.69911 47.5278 1.94063 49.535 0.581467 53.5494C-0.783433 57.5638 0.254579 60.7897 3.6955 63.227L34.8789 85.378L22.6206 125.164C21.4736 129.178 22.6206 132.404 26.0615 134.841Z" fill="#2388FF" />
    <path d="M43 92.5C43 92.5 50.25 78 68.375 78C86.5 78 93.75 92.5 93.75 92.5" stroke="white" stroke-width="6" stroke-linecap="round" stroke-linejoin="round" fill="#2388FF" />
  </symbol>
</svg>