<svg style="display: none" fill="none"
  xmlns="http://www.w3.org/2000/svg">
  <symbol id="iconMessageRatingStarHalf">
    <path d="M9.75073 15.5121C9.6048 15.5151 9.46235 15.5572 9.33823 15.634L4.94135 18.4184C4.21948 18.8777 3.31948 18.1934 3.5351 17.3496L4.80073 12.3621C4.83774 12.213 4.83186 12.0564 4.78375 11.9104C4.73565 11.7644 4.64729 11.635 4.52885 11.5371L0.291353 8.00274C-0.261772 7.54336 0.0194783 6.61524 0.741353 6.56836L6.2726 6.21211C6.42353 6.20333 6.56862 6.15078 6.69016 6.06087C6.8117 5.97097 6.90441 5.84761 6.95698 5.70586L9.01948 0.512112C9.07504 0.363121 9.17491 0.234728 9.30565 0.144216C9.43639 0.0537044 9.59172 0.00541985 9.75073 0.00586239V0.00586239V15.5121Z" fill="#2388FF" />
    <path d="M13.9728 12.5428L13.9728 12.5428L13.9739 12.547L15.3424 17.9276C15.3462 17.9424 15.3463 17.9518 15.3461 17.9569C15.3458 17.9622 15.3448 17.9665 15.3433 17.9705C15.34 17.9792 15.3328 17.99 15.3214 17.9986C15.3125 18.0054 15.306 18.0071 15.304 18.0075C15.3025 18.0071 15.2975 18.0054 15.2889 18C15.2887 17.9999 15.2886 17.9998 15.2884 17.9997L10.5657 15.0011C10.5655 15.001 10.5654 15.0009 10.5652 15.0008C10.3217 14.8461 10.0392 14.764 9.75073 14.764C9.46253 14.764 9.18029 14.846 8.93697 15.0004C8.93696 15.0004 8.93695 15.0004 8.93693 15.0004C8.93655 15.0006 8.93617 15.0009 8.93579 15.0011L4.5401 17.7847L4.5387 17.7856C4.4942 17.814 4.46215 17.8173 4.439 17.8157C4.41102 17.8137 4.3756 17.8023 4.34054 17.7756C4.27203 17.7235 4.23465 17.6414 4.26175 17.5353L4.26206 17.5341L5.52769 12.5466L5.5277 12.5466L5.52866 12.5428C5.5997 12.2564 5.5884 11.9559 5.49607 11.6757C5.40394 11.3961 5.23486 11.1482 5.00826 10.9604C5.00777 10.9599 5.00727 10.9595 5.00678 10.9591L0.771743 7.4268L0.770529 7.42579C0.761754 7.4185 0.758044 7.41328 0.756462 7.41077C0.754721 7.40802 0.753225 7.4048 0.752054 7.40035C0.749389 7.39024 0.748456 7.3728 0.754693 7.35264C0.760912 7.33255 0.770137 7.32279 0.772858 7.32049C0.773765 7.31972 0.774069 7.3196 0.774382 7.31947L0.774438 7.31945L0.774444 7.31945C0.774656 7.31936 0.778957 7.31754 0.78971 7.31682C0.78979 7.31682 0.789871 7.31681 0.789952 7.31681L6.31884 6.96071C6.61427 6.943 6.89822 6.83988 7.13618 6.66385C7.37218 6.48928 7.55284 6.25047 7.65667 5.97605L9.71653 0.788939C9.71922 0.782168 9.72181 0.775358 9.7243 0.768511C9.72627 0.763087 9.72987 0.7584 9.73459 0.755088C9.73932 0.751776 9.74496 0.75 9.75073 0.75C9.7565 0.75 9.76213 0.751776 9.76686 0.755088C9.77159 0.758401 9.77519 0.763088 9.77716 0.768511C9.77965 0.775358 9.78224 0.782168 9.78493 0.788939L11.8448 5.97605C11.9486 6.25047 12.1293 6.48928 12.3653 6.66385C12.6032 6.83988 12.8872 6.943 13.1826 6.96071C13.1835 6.96076 13.1844 6.96081 13.1853 6.96087L18.7115 7.31681C18.7116 7.31681 18.7117 7.31682 18.7117 7.31682C18.7227 7.31755 18.7269 7.31941 18.727 7.31945C18.7274 7.31959 18.7276 7.31967 18.7286 7.32049C18.7313 7.32278 18.7405 7.33255 18.7468 7.35264C18.753 7.3728 18.7521 7.39024 18.7494 7.40035C18.7482 7.4048 18.7467 7.40802 18.745 7.41077C18.7434 7.41328 18.7397 7.4185 18.7309 7.42579L18.7297 7.4268L14.4947 10.9591C14.4942 10.9595 14.4937 10.9599 14.4932 10.9604C14.2666 11.1482 14.0975 11.3961 14.0054 11.6757C13.9131 11.9559 13.9018 12.2564 13.9728 12.5428Z" stroke="#2388FF" stroke-width="1.5" stroke-linecap="round" stroke-linejoin="round" />
  </symbol>
</svg>